<svg xmlns="http://www.w3.org/2000/svg" viewBox="0 0 1000 1000"><path d="M442.77 4.58c-11.29 3.5-21.99 10.9-33.28 22.77-16.74 17.9-26.08 38.73-26.08 58.38 0 8.95-.19 9.34-7.2 11.48-19.26 6.23-37.95 23.55-48.06 44.76-5.84 12.26-6.03 13.43-6.62 45.15l-.78 32.69H214.9l-7.2-21.99c-3.89-12.07-7.2-23.16-7.2-24.32 0-3.31-13.43-21.02-21.6-29-3.7-3.5-11.87-8.76-18.29-11.68l-11.68-5.45-56.82-.58c-53.51-.58-57.41-.39-65.77 3.31-14.98 6.62-20.63 25.3-12.84 42.42 6.62 14.59 8.95 14.98 71.03 16.15l54.49.97 12.07 38.33c6.62 21.02 13.82 40.67 15.96 43.78 2.14 2.92 42.62 94.77 90.1 203.74 93.79 215.22 90.49 208.61 112.48 223.4 4.86 3.31 9.34 6.42 9.73 6.62.39.39-4.87 13.82-11.68 29.97-12.06 28.61-12.45 29.19-18.29 29.19-11.29.19-33.08 5.84-46.7 12.46-34.25 16.34-58.18 47.29-65.97 85.43-3.89 18.68-3.89 28.8 0 47.68 5.06 24.91 14.4 41.64 33.66 60.71 10.31 10.31 20.82 18.68 27.44 21.99l10.7 5.25h95.36l12.65-7.39c18.1-10.51 34.64-27.63 43.78-45.73l7.78-14.98h288.58l7.39 13.23c9.15 16.54 32.69 40.09 48.65 48.65l12.07 6.23h92.82l12.46-7.39c68.5-39.89 80.56-134.27 24.52-190.12-47.48-47.68-123.37-47.48-171.05.19-17.51 17.51-27.24 35.61-35.41 66.36-.58 1.95-29.38 2.53-135.83 2.53H477.02l-2.14-8.37c-7.39-29.38-25.88-56.24-51.37-74.53l-5.64-4.09 13.62-31.91 13.82-31.91 234.29-.97 234.49-.97 9.34-5.84c7-4.28 11.09-8.76 14.98-16.35l5.45-10.31V483.29c0-190.31.19-201.21 3.5-201.21 1.75 0 7.01-1.75 11.68-3.89 21.02-9.54 21.02-44.95 0-54.49-7.59-3.5-13.04-3.89-58.38-3.89h-50.01l-.58-93.02-.58-92.82-5.64-10.12c-6.81-12.46-10.31-15.76-20.04-19.27-10.53-3.69-369.17-3.69-381.04 0zm345.41 139.34v75.89h-93.4v-26.47c0-16.73.78-27.83 2.33-30.55 1.17-2.33 2.34-12.26 2.34-22.18.19-16.73-.2-18.29-5.64-26.27-11.29-15.96-4.67-15.18-133.69-15.18H445.69V90.4c0-6.81 1.17-9.93 6.03-15.57l6.03-6.81h330.42v75.9zM632.5 188.67v31.14H383.42V195.1c0-22.38.39-25.3 4.48-31.14l4.28-6.42H632.5v31.13zm249.08 280.22V655.7h-468.2l-6.42-4.47c-5.64-3.89-14.21-22.38-86.01-185.25-43.78-99.63-79.59-181.56-79.59-182.53 0-.78 144-1.36 320.11-1.36h320.11v186.8zm8.37 365.06c12.26 4.09 25.3 16.15 31.92 29.58 4.47 9.15 5.45 13.62 5.45 25.69-.19 24.32-11.48 42.62-33.08 52.93-30.16 14.21-65.77.97-79.39-29.39-5.84-12.84-5.64-32.88.39-46.51 5.64-12.26 21.99-28.02 33.67-32.11 11.07-3.89 29.75-4.08 41.04-.19zm-512.18 4.28c12.84 5.84 24.13 16.74 30.36 29.19 7.39 15.18 7.78 35.61.78 49.82-17.9 36.19-63.05 45.34-92.24 18.68-14.01-12.84-19.65-25.49-19.65-43.78-.2-42.04 43.2-71.03 80.75-53.91z"/><path d="M430.51 316.91c-6.23 2.92-9.15 6.03-12.06 12.26-3.7 7.98-3.89 13.82-3.89 139.72s.19 131.74 3.89 139.72c6.62 14.4 25.3 19.85 42.42 12.07 6.42-2.92 9.15-5.64 12.26-12.46 3.7-8.37 3.7-12.84 3.31-142.05-.58-131.16-.58-133.3-4.67-138.55-10.13-13.63-25.89-17.72-41.26-10.71zm93.41 0c-6.23 2.92-9.15 6.03-12.07 12.26-3.7 7.98-3.89 13.82-3.89 139.72s.19 131.74 3.89 139.72c6.62 14.4 25.3 19.85 42.42 12.07 6.42-2.92 9.15-5.64 12.26-12.46 3.7-8.37 3.7-12.84 3.31-142.05-.58-131.16-.58-133.3-4.67-138.55-10.12-13.63-25.88-17.72-41.25-10.71zm124.54.19c-6.42 2.92-9.15 5.64-12.07 12.07-3.7 7.98-3.89 13.82-3.89 139.72s.19 131.74 3.89 139.72c9.54 21.02 44.95 21.02 54.49 0 3.7-7.98 3.89-13.82 3.89-139.72 0-124.93-.19-131.74-3.7-139.52-6.81-14.79-25.3-20.05-42.61-12.27zm124.54 0c-6.42 2.92-9.15 5.64-12.06 12.07-3.7 7.98-3.89 13.82-3.89 139.72s.19 131.74 3.89 139.72c9.54 21.02 44.95 21.02 54.49 0 3.7-7.98 3.89-13.82 3.89-139.72s-.19-131.74-3.89-139.72c-4.28-9.34-15.37-15.96-27.24-15.96-3.71 0-10.52 1.75-15.19 3.89z"/></svg>