<svg width="128" height="128" fill="none" xmlns="http://www.w3.org/2000/svg"><rect x="80" y="24" width="17" height="40" rx="8.5" fill="#EEE"/><rect x="52" y="49" width="45" height="15" rx="7.5" fill="#EEE"/><rect x="30" y="24" width="67" height="17" rx="8.5" fill="#EEE"/><path d="M30 33a9 9 0 1 1 18 0v61a9 9 0 1 1-18 0V33zm29 44h33v20a4 4 0 0 1-4 4H63a4 4 0 0 1-4-4V77z" fill="#EEE"/><path d="M69 77h5v9.5a2.5 2.5 0 0 1-5 0V77z" fill="#31EA13"/><path d="M75 77h5v12.5a2.5 2.5 0 0 1-5 0V77z" fill="#5B89FF"/><path d="M81 77h5v4.5a2.5 2.5 0 0 1-5 0V77z" fill="#FF0303"/></svg>