<svg xmlns="http://www.w3.org/2000/svg" width="24" height="24"><path d="M22.351 12L24 9.916l-2.272-1.403L22.553 6l-2.624-.553-.098-2.64-2.655.364L16.167.723l-2.37 1.237L12 0l-1.797 1.961L7.833.724 6.824 3.171l-2.655-.363-.098 2.64L1.447 6l.825 2.513L0 9.916 1.649 12 0 14.084l2.272 1.403L1.447 18l2.624.553.098 2.64 2.655-.364 1.009 2.448 2.37-1.237L12 24l1.797-1.96 2.37 1.237 1.009-2.448 2.655.364.098-2.64L22.553 18l-.825-2.513L24 14.084 22.351 12zm-6.043-.206c.418.056.63.328.63.61 0 .323-.277.66-.844.705-.348.027-.434.312-.016.406.351.08.549.326.549.591 0 .314-.279.654-.913.771-.383.07-.421.445-.016.477.344.026.479.146.479.312 0 .466-.826 1.333-2.426 1.333C11.25 17 10.344 15.5 7 15.5v-4.964c1.766-.271 3.484-.817 4.344-3.802.239-.831.39-1.734 1.187-1.734 1.188 0 1.297 2.562.844 4.391.656.344 1.875.468 2.489.442.886-.036 1.136.409 1.136.745 0 .505-.416.675-.677.755-.304.094-.444.404-.015.461z"/></svg>